<svg xmlns="http://www.w3.org/2000/svg" viewBox="0 0 300 300" width="300" height="300">
  <defs>
    <linearGradient id="goldGrad" x1="0%" y1="0%" x2="100%" y2="100%">
      <stop offset="0%" style="stop-color:#E0C068"/>
      <stop offset="50%" style="stop-color:#C9A84C"/>
      <stop offset="100%" style="stop-color:#A8893A"/>
    </linearGradient>
    <filter id="softShadow">
      <feDropShadow dx="0" dy="1" stdDeviation="2" flood-color="#C9A84C" flood-opacity="0.3"/>
    </filter>
    <!-- Tile bevel - gives each tile a 3D raised look -->
    <filter id="tileBevel" x="-5%" y="-5%" width="110%" height="110%">
      <feSpecularLighting surfaceScale="3" specularConstant="0.4" specularExponent="20" result="spec">
        <fePointLight x="150" y="50" z="200"/>
      </feSpecularLighting>
      <feComposite in="SourceGraphic" in2="spec" operator="arithmetic" k1="0" k2="1" k3="0.15" k4="0"/>
    </filter>
    <!-- Grout texture -->
    <filter id="groutTexture">
      <feTurbulence type="fractalNoise" baseFrequency="0.9" numOctaves="4" result="noise"/>
      <feColorMatrix type="saturate" values="0" in="noise" result="grey"/>
      <feBlend in="SourceGraphic" in2="grey" mode="multiply"/>
    </filter>
  </defs>

  <!-- ==================== GROUT BASE ==================== -->
  <rect width="300" height="300" rx="4" fill="#0F0E0C"/>

  <!-- ==================== BACKGROUND MOSAIC TILES ==================== -->
  <!-- Each tile is hand-placed with slight size/position variations for organic feel -->
  <!-- Row 1 -->
  <g opacity="0.95">
    <rect x="1" y="1" width="8.5" height="8.5" rx="0.4" fill="#1D1B17"/>
    <rect x="10.5" y="1.2" width="8.3" height="8.4" rx="0.4" fill="#1A1815"/>
    <rect x="20" y="0.8" width="8.6" height="8.5" rx="0.4" fill="#1E1C18"/>
    <rect x="29.5" y="1" width="8.4" height="8.6" rx="0.4" fill="#1B1916"/>
    <rect x="39" y="1.1" width="8.5" height="8.3" rx="0.4" fill="#1D1B17"/>
    <rect x="48.5" y="0.9" width="8.4" height="8.5" rx="0.4" fill="#1F1D19"/>
    <rect x="58" y="1" width="8.6" height="8.4" rx="0.4" fill="#1A1815"/>
    <rect x="67.5" y="1.2" width="8.3" height="8.6" rx="0.4" fill="#1C1A16"/>
    <rect x="77" y="0.8" width="8.5" height="8.5" rx="0.4" fill="#1E1C18"/>
    <rect x="86.5" y="1" width="8.4" height="8.3" rx="0.4" fill="#1B1916"/>
    <rect x="96" y="1.1" width="8.6" height="8.5" rx="0.4" fill="#1D1B17"/>
    <rect x="105.5" y="0.9" width="8.3" height="8.4" rx="0.4" fill="#201E1A"/>
    <rect x="115" y="1" width="8.5" height="8.6" rx="0.4" fill="#1A1815"/>
    <rect x="124.5" y="1.2" width="8.4" height="8.3" rx="0.4" fill="#1C1A16"/>
    <rect x="134" y="0.8" width="8.6" height="8.5" rx="0.4" fill="#1E1C18"/>
    <rect x="143.5" y="1" width="8.3" height="8.4" rx="0.4" fill="#1B1916"/>
    <rect x="153" y="1.1" width="8.5" height="8.6" rx="0.4" fill="#1D1B17"/>
    <rect x="162.5" y="0.9" width="8.4" height="8.3" rx="0.4" fill="#1F1D19"/>
    <rect x="172" y="1" width="8.6" height="8.5" rx="0.4" fill="#1A1815"/>
    <rect x="181.5" y="1.2" width="8.3" height="8.4" rx="0.4" fill="#1C1A16"/>
    <rect x="191" y="0.8" width="8.5" height="8.6" rx="0.4" fill="#1E1C18"/>
    <rect x="200.5" y="1" width="8.4" height="8.3" rx="0.4" fill="#1B1916"/>
    <rect x="210" y="1.1" width="8.6" height="8.5" rx="0.4" fill="#1D1B17"/>
    <rect x="219.5" y="0.9" width="8.3" height="8.4" rx="0.4" fill="#201E1A"/>
    <rect x="229" y="1" width="8.5" height="8.6" rx="0.4" fill="#1A1815"/>
    <rect x="238.5" y="1.2" width="8.4" height="8.3" rx="0.4" fill="#1C1A16"/>
    <rect x="248" y="0.8" width="8.6" height="8.5" rx="0.4" fill="#1E1C18"/>
    <rect x="257.5" y="1" width="8.3" height="8.4" rx="0.4" fill="#1B1916"/>
    <rect x="267" y="1.1" width="8.5" height="8.6" rx="0.4" fill="#1D1B17"/>
    <rect x="276.5" y="0.9" width="8.4" height="8.3" rx="0.4" fill="#1F1D19"/>
    <rect x="286" y="1" width="8.6" height="8.5" rx="0.4" fill="#1A1815"/>
  </g>

  <!-- Full background dark mosaic grid - using a generating pattern approach -->
  <!-- Rows 2-30 of dark tiles covering entire background -->
  <g opacity="0.92">
    <!-- Generate rows programmatically with color variation -->
    <!-- I'll create a dense but organic-feeling grid -->
    <!-- Row 2 -->
    <rect x="0.8" y="10.5" width="8.4" height="8.3" rx="0.4" fill="#1C1A16"/><rect x="10.2" y="10.8" width="8.5" height="8.4" rx="0.4" fill="#1E1C18"/><rect x="19.7" y="10.3" width="8.6" height="8.5" rx="0.4" fill="#1A1815"/><rect x="29.3" y="10.6" width="8.3" height="8.6" rx="0.4" fill="#1D1B17"/><rect x="38.6" y="10.4" width="8.5" height="8.3" rx="0.4" fill="#1B1916"/><rect x="48.1" y="10.7" width="8.4" height="8.5" rx="0.4" fill="#1C1A16"/><rect x="57.5" y="10.5" width="8.6" height="8.4" rx="0.4" fill="#1F1D19"/><rect x="67" y="10.8" width="8.3" height="8.6" rx="0.4" fill="#1A1815"/><rect x="76.3" y="10.3" width="8.5" height="8.5" rx="0.4" fill="#1E1C18"/><rect x="85.8" y="10.6" width="8.4" height="8.3" rx="0.4" fill="#1D1B17"/><rect x="95.2" y="10.4" width="8.6" height="8.5" rx="0.4" fill="#1B1916"/><rect x="104.8" y="10.7" width="8.3" height="8.4" rx="0.4" fill="#201E1A"/><rect x="114.1" y="10.5" width="8.5" height="8.6" rx="0.4" fill="#1C1A16"/><rect x="123.6" y="10.8" width="8.4" height="8.3" rx="0.4" fill="#1A1815"/><rect x="133.2" y="10.3" width="8.6" height="8.5" rx="0.4" fill="#1E1C18"/><rect x="142.7" y="10.6" width="8.3" height="8.4" rx="0.4" fill="#1D1B17"/><rect x="152.2" y="10.4" width="8.5" height="8.6" rx="0.4" fill="#1B1916"/><rect x="161.7" y="10.7" width="8.4" height="8.3" rx="0.4" fill="#1F1D19"/><rect x="171.2" y="10.5" width="8.6" height="8.5" rx="0.4" fill="#1A1815"/><rect x="180.7" y="10.8" width="8.3" height="8.4" rx="0.4" fill="#1C1A16"/><rect x="190.2" y="10.3" width="8.5" height="8.6" rx="0.4" fill="#1E1C18"/><rect x="199.7" y="10.6" width="8.4" height="8.3" rx="0.4" fill="#1D1B17"/><rect x="209.2" y="10.4" width="8.6" height="8.5" rx="0.4" fill="#1B1916"/><rect x="218.7" y="10.7" width="8.3" height="8.4" rx="0.4" fill="#201E1A"/><rect x="228.2" y="10.5" width="8.5" height="8.6" rx="0.4" fill="#1C1A16"/><rect x="237.7" y="10.8" width="8.4" height="8.3" rx="0.4" fill="#1A1815"/><rect x="247.2" y="10.3" width="8.6" height="8.5" rx="0.4" fill="#1E1C18"/><rect x="256.7" y="10.6" width="8.3" height="8.4" rx="0.4" fill="#1D1B17"/><rect x="266.2" y="10.4" width="8.5" height="8.6" rx="0.4" fill="#1B1916"/><rect x="275.7" y="10.7" width="8.4" height="8.3" rx="0.4" fill="#1F1D19"/><rect x="285.2" y="10.5" width="8.6" height="8.5" rx="0.4" fill="#1A1815"/>
  </g>

  <!-- Repeating dark mosaic using rect pattern for remaining rows -->
  <defs>
    <pattern id="bgTiles" width="19" height="19" patternUnits="userSpaceOnUse" patternTransform="rotate(0.5)">
      <rect width="19" height="19" fill="#0F0E0C"/>
      <rect x="0.5" y="0.5" width="8.5" height="8.5" rx="0.4" fill="#1C1A16"/>
      <rect x="10" y="0.5" width="8.5" height="8.5" rx="0.4" fill="#1E1C18"/>
      <rect x="0.5" y="10" width="8.5" height="8.5" rx="0.4" fill="#1A1815"/>
      <rect x="10" y="10" width="8.5" height="8.5" rx="0.4" fill="#1D1B17"/>
      <!-- Tile surface light catch - top-left highlight -->
      <line x1="1" y1="1" x2="4" y2="1" stroke="#2A2720" stroke-width="0.5" opacity="0.5"/>
      <line x1="10.5" y1="1" x2="13.5" y2="1" stroke="#2A2720" stroke-width="0.5" opacity="0.4"/>
      <line x1="1" y1="10.5" x2="4" y2="10.5" stroke="#2A2720" stroke-width="0.5" opacity="0.4"/>
      <line x1="10.5" y1="10.5" x2="13.5" y2="10.5" stroke="#2A2720" stroke-width="0.5" opacity="0.5"/>
    </pattern>
  </defs>
  <rect x="0" y="20" width="300" height="280" fill="url(#bgTiles)" rx="4"/>

  <!-- Subtle gold dust scattered on dark tiles -->
  <g opacity="0.06">
    <circle cx="25" cy="45" r="0.6" fill="#C9A84C"/>
    <circle cx="78" cy="32" r="0.5" fill="#E0C068"/>
    <circle cx="145" cy="55" r="0.7" fill="#C9A84C"/>
    <circle cx="210" cy="38" r="0.5" fill="#E0C068"/>
    <circle cx="267" cy="48" r="0.6" fill="#C9A84C"/>
    <circle cx="55" cy="270" r="0.5" fill="#E0C068"/>
    <circle cx="120" cy="265" r="0.6" fill="#C9A84C"/>
    <circle cx="195" cy="275" r="0.7" fill="#E0C068"/>
    <circle cx="250" cy="268" r="0.5" fill="#C9A84C"/>
  </g>

  <!-- ==================== MOSAIC BORDER — REAL TESSERAE ==================== -->
  <!-- Each border tile is individually colored with grout gaps, like real mosaic -->

  <!-- TOP BORDER - row of colored tesserae -->
  <g>
    <rect x="4" y="4" width="7.5" height="7.5" rx="0.5" fill="#8A6F2E" stroke="#0F0E0C" stroke-width="0.8"/>
    <rect x="4" y="4" width="7.5" height="1.2" rx="0.3" fill="#9E8035" opacity="0.4"/>
    <rect x="13" y="4.2" width="7.3" height="7.3" rx="0.5" fill="#C9A84C" stroke="#0F0E0C" stroke-width="0.8"/>
    <rect x="13" y="4.2" width="7.3" height="1.2" rx="0.3" fill="#E0C068" opacity="0.35"/>
    <rect x="21.8" y="3.8" width="7.6" height="7.6" rx="0.5" fill="#A8893A" stroke="#0F0E0C" stroke-width="0.8"/>
    <rect x="21.8" y="3.8" width="7.6" height="1.2" rx="0.3" fill="#C9A84C" opacity="0.35"/>
    <rect x="30.9" y="4.1" width="7.4" height="7.4" rx="0.5" fill="#E0C068" stroke="#0F0E0C" stroke-width="0.8"/>
    <rect x="30.9" y="4.1" width="7.4" height="1.2" rx="0.3" fill="#E8D08A" opacity="0.4"/>
    <rect x="39.8" y="4" width="7.5" height="7.5" rx="0.5" fill="#C9A84C" stroke="#0F0E0C" stroke-width="0.8"/>
    <rect x="39.8" y="4" width="7.5" height="1.2" rx="0.3" fill="#E0C068" opacity="0.35"/>
    <rect x="48.8" y="4.3" width="7.3" height="7.2" rx="0.5" fill="#8A6F2E" stroke="#0F0E0C" stroke-width="0.8"/>
    <rect x="48.8" y="4.3" width="7.3" height="1.2" rx="0.3" fill="#9E8035" opacity="0.4"/>
    <rect x="57.6" y="3.9" width="7.6" height="7.6" rx="0.5" fill="#E8D08A" stroke="#0F0E0C" stroke-width="0.8"/>
    <rect x="57.6" y="3.9" width="7.6" height="1.2" rx="0.3" fill="#F0E0A0" opacity="0.35"/>
    <rect x="66.7" y="4.1" width="7.4" height="7.4" rx="0.5" fill="#A8893A" stroke="#0F0E0C" stroke-width="0.8"/>
    <rect x="66.7" y="4.1" width="7.4" height="1.2" rx="0.3" fill="#C9A84C" opacity="0.35"/>
    <rect x="75.6" y="4" width="7.5" height="7.5" rx="0.5" fill="#C9A84C" stroke="#0F0E0C" stroke-width="0.8"/>
    <rect x="75.6" y="4" width="7.5" height="1.2" rx="0.3" fill="#E0C068" opacity="0.35"/>
    <rect x="84.6" y="4.2" width="7.3" height="7.3" rx="0.5" fill="#E0C068" stroke="#0F0E0C" stroke-width="0.8"/>
    <rect x="84.6" y="4.2" width="7.3" height="1.2" rx="0.3" fill="#E8D08A" opacity="0.4"/>
    <rect x="93.4" y="3.8" width="7.6" height="7.6" rx="0.5" fill="#8A6F2E" stroke="#0F0E0C" stroke-width="0.8"/>
    <rect x="93.4" y="3.8" width="7.6" height="1.2" rx="0.3" fill="#9E8035" opacity="0.4"/>
    <rect x="102.5" y="4.1" width="7.4" height="7.4" rx="0.5" fill="#C9A84C" stroke="#0F0E0C" stroke-width="0.8"/>
    <rect x="102.5" y="4.1" width="7.4" height="1.2" rx="0.3" fill="#E0C068" opacity="0.35"/>
    <rect x="111.4" y="4" width="7.5" height="7.5" rx="0.5" fill="#E8D08A" stroke="#0F0E0C" stroke-width="0.8"/>
    <rect x="111.4" y="4" width="7.5" height="1.2" rx="0.3" fill="#F0E0A0" opacity="0.35"/>
    <rect x="120.4" y="4.3" width="7.3" height="7.2" rx="0.5" fill="#A8893A" stroke="#0F0E0C" stroke-width="0.8"/>
    <rect x="120.4" y="4.3" width="7.3" height="1.2" rx="0.3" fill="#C9A84C" opacity="0.35"/>
    <rect x="129.2" y="3.9" width="7.6" height="7.6" rx="0.5" fill="#C9A84C" stroke="#0F0E0C" stroke-width="0.8"/>
    <rect x="129.2" y="3.9" width="7.6" height="1.2" rx="0.3" fill="#E0C068" opacity="0.35"/>
    <rect x="138.3" y="4.1" width="7.4" height="7.4" rx="0.5" fill="#E0C068" stroke="#0F0E0C" stroke-width="0.8"/>
    <rect x="138.3" y="4.1" width="7.4" height="1.2" rx="0.3" fill="#E8D08A" opacity="0.4"/>
    <rect x="147.2" y="4" width="7.5" height="7.5" rx="0.5" fill="#8A6F2E" stroke="#0F0E0C" stroke-width="0.8"/>
    <rect x="147.2" y="4" width="7.5" height="1.2" rx="0.3" fill="#9E8035" opacity="0.4"/>
    <rect x="156.2" y="4.2" width="7.3" height="7.3" rx="0.5" fill="#C9A84C" stroke="#0F0E0C" stroke-width="0.8"/>
    <rect x="156.2" y="4.2" width="7.3" height="1.2" rx="0.3" fill="#E0C068" opacity="0.35"/>
    <rect x="165" y="3.8" width="7.6" height="7.6" rx="0.5" fill="#E8D08A" stroke="#0F0E0C" stroke-width="0.8"/>
    <rect x="165" y="3.8" width="7.6" height="1.2" rx="0.3" fill="#F0E0A0" opacity="0.35"/>
    <rect x="174.1" y="4.1" width="7.4" height="7.4" rx="0.5" fill="#A8893A" stroke="#0F0E0C" stroke-width="0.8"/>
    <rect x="174.1" y="4.1" width="7.4" height="1.2" rx="0.3" fill="#C9A84C" opacity="0.35"/>
    <rect x="183" y="4" width="7.5" height="7.5" rx="0.5" fill="#E0C068" stroke="#0F0E0C" stroke-width="0.8"/>
    <rect x="183" y="4" width="7.5" height="1.2" rx="0.3" fill="#E8D08A" opacity="0.4"/>
    <rect x="192" y="4.3" width="7.3" height="7.2" rx="0.5" fill="#C9A84C" stroke="#0F0E0C" stroke-width="0.8"/>
    <rect x="192" y="4.3" width="7.3" height="1.2" rx="0.3" fill="#E0C068" opacity="0.35"/>
    <rect x="200.8" y="3.9" width="7.6" height="7.6" rx="0.5" fill="#8A6F2E" stroke="#0F0E0C" stroke-width="0.8"/>
    <rect x="200.8" y="3.9" width="7.6" height="1.2" rx="0.3" fill="#9E8035" opacity="0.4"/>
    <rect x="209.9" y="4.1" width="7.4" height="7.4" rx="0.5" fill="#E8D08A" stroke="#0F0E0C" stroke-width="0.8"/>
    <rect x="209.9" y="4.1" width="7.4" height="1.2" rx="0.3" fill="#F0E0A0" opacity="0.35"/>
    <rect x="218.8" y="4" width="7.5" height="7.5" rx="0.5" fill="#C9A84C" stroke="#0F0E0C" stroke-width="0.8"/>
    <rect x="218.8" y="4" width="7.5" height="1.2" rx="0.3" fill="#E0C068" opacity="0.35"/>
    <rect x="227.8" y="4.2" width="7.3" height="7.3" rx="0.5" fill="#A8893A" stroke="#0F0E0C" stroke-width="0.8"/>
    <rect x="227.8" y="4.2" width="7.3" height="1.2" rx="0.3" fill="#C9A84C" opacity="0.35"/>
    <rect x="236.6" y="3.8" width="7.6" height="7.6" rx="0.5" fill="#E0C068" stroke="#0F0E0C" stroke-width="0.8"/>
    <rect x="236.6" y="3.8" width="7.6" height="1.2" rx="0.3" fill="#E8D08A" opacity="0.4"/>
    <rect x="245.7" y="4.1" width="7.4" height="7.4" rx="0.5" fill="#C9A84C" stroke="#0F0E0C" stroke-width="0.8"/>
    <rect x="245.7" y="4.1" width="7.4" height="1.2" rx="0.3" fill="#E0C068" opacity="0.35"/>
    <rect x="254.6" y="4" width="7.5" height="7.5" rx="0.5" fill="#8A6F2E" stroke="#0F0E0C" stroke-width="0.8"/>
    <rect x="254.6" y="4" width="7.5" height="1.2" rx="0.3" fill="#9E8035" opacity="0.4"/>
    <rect x="263.6" y="4.3" width="7.3" height="7.2" rx="0.5" fill="#E8D08A" stroke="#0F0E0C" stroke-width="0.8"/>
    <rect x="263.6" y="4.3" width="7.3" height="1.2" rx="0.3" fill="#F0E0A0" opacity="0.35"/>
    <rect x="272.4" y="3.9" width="7.6" height="7.6" rx="0.5" fill="#C9A84C" stroke="#0F0E0C" stroke-width="0.8"/>
    <rect x="272.4" y="3.9" width="7.6" height="1.2" rx="0.3" fill="#E0C068" opacity="0.35"/>
    <rect x="281.5" y="4.1" width="7.4" height="7.4" rx="0.5" fill="#A8893A" stroke="#0F0E0C" stroke-width="0.8"/>
    <rect x="281.5" y="4.1" width="7.4" height="1.2" rx="0.3" fill="#C9A84C" opacity="0.35"/>
    <rect x="290" y="4" width="7.5" height="7.5" rx="0.5" fill="#E0C068" stroke="#0F0E0C" stroke-width="0.8"/>
    <rect x="290" y="4" width="7.5" height="1.2" rx="0.3" fill="#E8D08A" opacity="0.4"/>
  </g>

  <!-- BOTTOM BORDER - mirrored tesserae -->
  <g>
    <rect x="4" y="288.5" width="7.5" height="7.5" rx="0.5" fill="#C9A84C" stroke="#0F0E0C" stroke-width="0.8"/>
    <rect x="13" y="288.3" width="7.3" height="7.3" rx="0.5" fill="#E0C068" stroke="#0F0E0C" stroke-width="0.8"/>
    <rect x="21.8" y="288.7" width="7.6" height="7.6" rx="0.5" fill="#8A6F2E" stroke="#0F0E0C" stroke-width="0.8"/>
    <rect x="30.9" y="288.4" width="7.4" height="7.4" rx="0.5" fill="#A8893A" stroke="#0F0E0C" stroke-width="0.8"/>
    <rect x="39.8" y="288.5" width="7.5" height="7.5" rx="0.5" fill="#E8D08A" stroke="#0F0E0C" stroke-width="0.8"/>
    <rect x="48.8" y="288.2" width="7.3" height="7.3" rx="0.5" fill="#C9A84C" stroke="#0F0E0C" stroke-width="0.8"/>
    <rect x="57.6" y="288.6" width="7.6" height="7.6" rx="0.5" fill="#E0C068" stroke="#0F0E0C" stroke-width="0.8"/>
    <rect x="66.7" y="288.4" width="7.4" height="7.4" rx="0.5" fill="#8A6F2E" stroke="#0F0E0C" stroke-width="0.8"/>
    <rect x="75.6" y="288.5" width="7.5" height="7.5" rx="0.5" fill="#A8893A" stroke="#0F0E0C" stroke-width="0.8"/>
    <rect x="84.6" y="288.3" width="7.3" height="7.3" rx="0.5" fill="#C9A84C" stroke="#0F0E0C" stroke-width="0.8"/>
    <rect x="93.4" y="288.7" width="7.6" height="7.6" rx="0.5" fill="#E8D08A" stroke="#0F0E0C" stroke-width="0.8"/>
    <rect x="102.5" y="288.4" width="7.4" height="7.4" rx="0.5" fill="#E0C068" stroke="#0F0E0C" stroke-width="0.8"/>
    <rect x="111.4" y="288.5" width="7.5" height="7.5" rx="0.5" fill="#C9A84C" stroke="#0F0E0C" stroke-width="0.8"/>
    <rect x="120.4" y="288.2" width="7.3" height="7.3" rx="0.5" fill="#8A6F2E" stroke="#0F0E0C" stroke-width="0.8"/>
    <rect x="129.2" y="288.6" width="7.6" height="7.6" rx="0.5" fill="#A8893A" stroke="#0F0E0C" stroke-width="0.8"/>
    <rect x="138.3" y="288.4" width="7.4" height="7.4" rx="0.5" fill="#E8D08A" stroke="#0F0E0C" stroke-width="0.8"/>
    <rect x="147.2" y="288.5" width="7.5" height="7.5" rx="0.5" fill="#C9A84C" stroke="#0F0E0C" stroke-width="0.8"/>
    <rect x="156.2" y="288.3" width="7.3" height="7.3" rx="0.5" fill="#E0C068" stroke="#0F0E0C" stroke-width="0.8"/>
    <rect x="165" y="288.7" width="7.6" height="7.6" rx="0.5" fill="#8A6F2E" stroke="#0F0E0C" stroke-width="0.8"/>
    <rect x="174.1" y="288.4" width="7.4" height="7.4" rx="0.5" fill="#C9A84C" stroke="#0F0E0C" stroke-width="0.8"/>
    <rect x="183" y="288.5" width="7.5" height="7.5" rx="0.5" fill="#E0C068" stroke="#0F0E0C" stroke-width="0.8"/>
    <rect x="192" y="288.2" width="7.3" height="7.3" rx="0.5" fill="#A8893A" stroke="#0F0E0C" stroke-width="0.8"/>
    <rect x="200.8" y="288.6" width="7.6" height="7.6" rx="0.5" fill="#E8D08A" stroke="#0F0E0C" stroke-width="0.8"/>
    <rect x="209.9" y="288.4" width="7.4" height="7.4" rx="0.5" fill="#C9A84C" stroke="#0F0E0C" stroke-width="0.8"/>
    <rect x="218.8" y="288.5" width="7.5" height="7.5" rx="0.5" fill="#8A6F2E" stroke="#0F0E0C" stroke-width="0.8"/>
    <rect x="227.8" y="288.3" width="7.3" height="7.3" rx="0.5" fill="#E0C068" stroke="#0F0E0C" stroke-width="0.8"/>
    <rect x="236.6" y="288.7" width="7.6" height="7.6" rx="0.5" fill="#C9A84C" stroke="#0F0E0C" stroke-width="0.8"/>
    <rect x="245.7" y="288.4" width="7.4" height="7.4" rx="0.5" fill="#A8893A" stroke="#0F0E0C" stroke-width="0.8"/>
    <rect x="254.6" y="288.5" width="7.5" height="7.5" rx="0.5" fill="#E8D08A" stroke="#0F0E0C" stroke-width="0.8"/>
    <rect x="263.6" y="288.2" width="7.3" height="7.3" rx="0.5" fill="#C9A84C" stroke="#0F0E0C" stroke-width="0.8"/>
    <rect x="272.4" y="288.6" width="7.6" height="7.6" rx="0.5" fill="#E0C068" stroke="#0F0E0C" stroke-width="0.8"/>
    <rect x="281.5" y="288.4" width="7.4" height="7.4" rx="0.5" fill="#8A6F2E" stroke="#0F0E0C" stroke-width="0.8"/>
    <rect x="290" y="288.5" width="7.5" height="7.5" rx="0.5" fill="#C9A84C" stroke="#0F0E0C" stroke-width="0.8"/>
  </g>

  <!-- LEFT BORDER — vertical tesserae -->
  <g>
    <rect x="4" y="13" width="7.5" height="7.3" rx="0.5" fill="#E0C068" stroke="#0F0E0C" stroke-width="0.8"/>
    <rect x="3.8" y="21.8" width="7.6" height="7.5" rx="0.5" fill="#C9A84C" stroke="#0F0E0C" stroke-width="0.8"/>
    <rect x="4.1" y="30.8" width="7.4" height="7.4" rx="0.5" fill="#8A6F2E" stroke="#0F0E0C" stroke-width="0.8"/>
    <rect x="4" y="39.7" width="7.5" height="7.6" rx="0.5" fill="#A8893A" stroke="#0F0E0C" stroke-width="0.8"/>
    <rect x="4.2" y="48.8" width="7.3" height="7.3" rx="0.5" fill="#E8D08A" stroke="#0F0E0C" stroke-width="0.8"/>
    <rect x="3.9" y="57.6" width="7.6" height="7.5" rx="0.5" fill="#C9A84C" stroke="#0F0E0C" stroke-width="0.8"/>
    <rect x="4.1" y="66.6" width="7.4" height="7.4" rx="0.5" fill="#E0C068" stroke="#0F0E0C" stroke-width="0.8"/>
    <rect x="4" y="75.5" width="7.5" height="7.6" rx="0.5" fill="#8A6F2E" stroke="#0F0E0C" stroke-width="0.8"/>
    <rect x="4.2" y="84.6" width="7.3" height="7.3" rx="0.5" fill="#C9A84C" stroke="#0F0E0C" stroke-width="0.8"/>
    <rect x="3.8" y="93.4" width="7.6" height="7.5" rx="0.5" fill="#A8893A" stroke="#0F0E0C" stroke-width="0.8"/>
    <rect x="4.1" y="102.4" width="7.4" height="7.4" rx="0.5" fill="#E8D08A" stroke="#0F0E0C" stroke-width="0.8"/>
    <rect x="4" y="111.3" width="7.5" height="7.6" rx="0.5" fill="#E0C068" stroke="#0F0E0C" stroke-width="0.8"/>
    <rect x="4.2" y="120.4" width="7.3" height="7.3" rx="0.5" fill="#C9A84C" stroke="#0F0E0C" stroke-width="0.8"/>
    <rect x="3.9" y="129.2" width="7.6" height="7.5" rx="0.5" fill="#8A6F2E" stroke="#0F0E0C" stroke-width="0.8"/>
    <rect x="4.1" y="138.2" width="7.4" height="7.4" rx="0.5" fill="#A8893A" stroke="#0F0E0C" stroke-width="0.8"/>
    <rect x="4" y="147.1" width="7.5" height="7.6" rx="0.5" fill="#E8D08A" stroke="#0F0E0C" stroke-width="0.8"/>
    <rect x="4.2" y="156.2" width="7.3" height="7.3" rx="0.5" fill="#C9A84C" stroke="#0F0E0C" stroke-width="0.8"/>
    <rect x="3.8" y="165" width="7.6" height="7.5" rx="0.5" fill="#E0C068" stroke="#0F0E0C" stroke-width="0.8"/>
    <rect x="4.1" y="174" width="7.4" height="7.4" rx="0.5" fill="#8A6F2E" stroke="#0F0E0C" stroke-width="0.8"/>
    <rect x="4" y="182.9" width="7.5" height="7.6" rx="0.5" fill="#C9A84C" stroke="#0F0E0C" stroke-width="0.8"/>
    <rect x="4.2" y="192" width="7.3" height="7.3" rx="0.5" fill="#A8893A" stroke="#0F0E0C" stroke-width="0.8"/>
    <rect x="3.9" y="200.8" width="7.6" height="7.5" rx="0.5" fill="#E8D08A" stroke="#0F0E0C" stroke-width="0.8"/>
    <rect x="4.1" y="209.8" width="7.4" height="7.4" rx="0.5" fill="#E0C068" stroke="#0F0E0C" stroke-width="0.8"/>
    <rect x="4" y="218.7" width="7.5" height="7.6" rx="0.5" fill="#C9A84C" stroke="#0F0E0C" stroke-width="0.8"/>
    <rect x="4.2" y="227.8" width="7.3" height="7.3" rx="0.5" fill="#8A6F2E" stroke="#0F0E0C" stroke-width="0.8"/>
    <rect x="3.8" y="236.6" width="7.6" height="7.5" rx="0.5" fill="#A8893A" stroke="#0F0E0C" stroke-width="0.8"/>
    <rect x="4.1" y="245.6" width="7.4" height="7.4" rx="0.5" fill="#E8D08A" stroke="#0F0E0C" stroke-width="0.8"/>
    <rect x="4" y="254.5" width="7.5" height="7.6" rx="0.5" fill="#C9A84C" stroke="#0F0E0C" stroke-width="0.8"/>
    <rect x="4.2" y="263.6" width="7.3" height="7.3" rx="0.5" fill="#E0C068" stroke="#0F0E0C" stroke-width="0.8"/>
    <rect x="3.9" y="272.4" width="7.6" height="7.5" rx="0.5" fill="#8A6F2E" stroke="#0F0E0C" stroke-width="0.8"/>
    <rect x="4.1" y="281.4" width="7.4" height="7.4" rx="0.5" fill="#C9A84C" stroke="#0F0E0C" stroke-width="0.8"/>
  </g>

  <!-- RIGHT BORDER — vertical tesserae -->
  <g>
    <rect x="288.5" y="13" width="7.5" height="7.3" rx="0.5" fill="#A8893A" stroke="#0F0E0C" stroke-width="0.8"/>
    <rect x="288.3" y="21.8" width="7.6" height="7.5" rx="0.5" fill="#E8D08A" stroke="#0F0E0C" stroke-width="0.8"/>
    <rect x="288.6" y="30.8" width="7.4" height="7.4" rx="0.5" fill="#C9A84C" stroke="#0F0E0C" stroke-width="0.8"/>
    <rect x="288.5" y="39.7" width="7.5" height="7.6" rx="0.5" fill="#E0C068" stroke="#0F0E0C" stroke-width="0.8"/>
    <rect x="288.7" y="48.8" width="7.3" height="7.3" rx="0.5" fill="#8A6F2E" stroke="#0F0E0C" stroke-width="0.8"/>
    <rect x="288.4" y="57.6" width="7.6" height="7.5" rx="0.5" fill="#A8893A" stroke="#0F0E0C" stroke-width="0.8"/>
    <rect x="288.6" y="66.6" width="7.4" height="7.4" rx="0.5" fill="#C9A84C" stroke="#0F0E0C" stroke-width="0.8"/>
    <rect x="288.5" y="75.5" width="7.5" height="7.6" rx="0.5" fill="#E8D08A" stroke="#0F0E0C" stroke-width="0.8"/>
    <rect x="288.7" y="84.6" width="7.3" height="7.3" rx="0.5" fill="#E0C068" stroke="#0F0E0C" stroke-width="0.8"/>
    <rect x="288.3" y="93.4" width="7.6" height="7.5" rx="0.5" fill="#8A6F2E" stroke="#0F0E0C" stroke-width="0.8"/>
    <rect x="288.6" y="102.4" width="7.4" height="7.4" rx="0.5" fill="#C9A84C" stroke="#0F0E0C" stroke-width="0.8"/>
    <rect x="288.5" y="111.3" width="7.5" height="7.6" rx="0.5" fill="#A8893A" stroke="#0F0E0C" stroke-width="0.8"/>
    <rect x="288.7" y="120.4" width="7.3" height="7.3" rx="0.5" fill="#E8D08A" stroke="#0F0E0C" stroke-width="0.8"/>
    <rect x="288.4" y="129.2" width="7.6" height="7.5" rx="0.5" fill="#E0C068" stroke="#0F0E0C" stroke-width="0.8"/>
    <rect x="288.6" y="138.2" width="7.4" height="7.4" rx="0.5" fill="#C9A84C" stroke="#0F0E0C" stroke-width="0.8"/>
    <rect x="288.5" y="147.1" width="7.5" height="7.6" rx="0.5" fill="#8A6F2E" stroke="#0F0E0C" stroke-width="0.8"/>
    <rect x="288.7" y="156.2" width="7.3" height="7.3" rx="0.5" fill="#A8893A" stroke="#0F0E0C" stroke-width="0.8"/>
    <rect x="288.3" y="165" width="7.6" height="7.5" rx="0.5" fill="#E8D08A" stroke="#0F0E0C" stroke-width="0.8"/>
    <rect x="288.6" y="174" width="7.4" height="7.4" rx="0.5" fill="#C9A84C" stroke="#0F0E0C" stroke-width="0.8"/>
    <rect x="288.5" y="182.9" width="7.5" height="7.6" rx="0.5" fill="#E0C068" stroke="#0F0E0C" stroke-width="0.8"/>
    <rect x="288.7" y="192" width="7.3" height="7.3" rx="0.5" fill="#8A6F2E" stroke="#0F0E0C" stroke-width="0.8"/>
    <rect x="288.4" y="200.8" width="7.6" height="7.5" rx="0.5" fill="#C9A84C" stroke="#0F0E0C" stroke-width="0.8"/>
    <rect x="288.6" y="209.8" width="7.4" height="7.4" rx="0.5" fill="#A8893A" stroke="#0F0E0C" stroke-width="0.8"/>
    <rect x="288.5" y="218.7" width="7.5" height="7.6" rx="0.5" fill="#E8D08A" stroke="#0F0E0C" stroke-width="0.8"/>
    <rect x="288.7" y="227.8" width="7.3" height="7.3" rx="0.5" fill="#E0C068" stroke="#0F0E0C" stroke-width="0.8"/>
    <rect x="288.3" y="236.6" width="7.6" height="7.5" rx="0.5" fill="#C9A84C" stroke="#0F0E0C" stroke-width="0.8"/>
    <rect x="288.6" y="245.6" width="7.4" height="7.4" rx="0.5" fill="#8A6F2E" stroke="#0F0E0C" stroke-width="0.8"/>
    <rect x="288.5" y="254.5" width="7.5" height="7.6" rx="0.5" fill="#A8893A" stroke="#0F0E0C" stroke-width="0.8"/>
    <rect x="288.7" y="263.6" width="7.3" height="7.3" rx="0.5" fill="#E8D08A" stroke="#0F0E0C" stroke-width="0.8"/>
    <rect x="288.4" y="272.4" width="7.6" height="7.5" rx="0.5" fill="#C9A84C" stroke="#0F0E0C" stroke-width="0.8"/>
    <rect x="288.6" y="281.4" width="7.4" height="7.4" rx="0.5" fill="#E0C068" stroke="#0F0E0C" stroke-width="0.8"/>
  </g>

  <!-- ==================== CENTRAL MOSAIC STAR — BUILT FROM INDIVIDUAL TESSERAE ==================== -->
  <g transform="translate(150, 105)" filter="url(#softShadow)">
    <!-- Each piece of the star is a separate "tile" with grout gaps -->

    <!-- Central octagon — broken into mosaic pieces -->
    <polygon points="0,-8 8,0 0,8 -8,0" fill="#E8D08A" stroke="#0F0E0C" stroke-width="0.8"/>
    <!-- Ring of 8 trapezoid tiles around center -->
    <polygon points="0,-8 8,0 14,-10 6,-16" fill="#C9A84C" stroke="#0F0E0C" stroke-width="0.7"/>
    <polygon points="8,0 0,8 10,14 16,6" fill="#E0C068" stroke="#0F0E0C" stroke-width="0.7"/>
    <polygon points="0,8 -8,0 -14,10 -6,16" fill="#C9A84C" stroke="#0F0E0C" stroke-width="0.7"/>
    <polygon points="-8,0 0,-8 -10,-14 -16,-6" fill="#E0C068" stroke="#0F0E0C" stroke-width="0.7"/>
    <polygon points="0,-8 -8,0 -14,-10 -6,-16" fill="#A8893A" stroke="#0F0E0C" stroke-width="0.7"/>
    <polygon points="8,0 0,-8 14,-10 16,-6" fill="#D4B55A" stroke="#0F0E0C" stroke-width="0.7"/>
    <polygon points="0,8 8,0 14,10 6,16" fill="#A8893A" stroke="#0F0E0C" stroke-width="0.7"/>
    <polygon points="-8,0 0,8 -14,10 -16,6" fill="#D4B55A" stroke="#0F0E0C" stroke-width="0.7"/>

    <!-- Outer star points — 8 triangular tesserae -->
    <polygon points="0,-28 6,-16 -6,-16" fill="#E0C068" stroke="#0F0E0C" stroke-width="0.7"/>
    <rect x="-1" y="-27" width="2" height="4" rx="0.2" fill="#E8D08A" opacity="0.3"/>
    <polygon points="6,-16 14,-10 20,-20" fill="#C9A84C" stroke="#0F0E0C" stroke-width="0.7"/>
    <polygon points="14,-10 20,-20 28,0" fill="#A8893A" stroke="#0F0E0C" stroke-width="0.7"/>
    <polygon points="16,-6 14,-10 28,0" fill="#8A6F2E" stroke="#0F0E0C" stroke-width="0.7"/>
    <polygon points="28,0 16,6 14,10" fill="#C9A84C" stroke="#0F0E0C" stroke-width="0.7"/>
    <polygon points="16,6 14,10 20,20" fill="#E0C068" stroke="#0F0E0C" stroke-width="0.7"/>
    <polygon points="6,16 14,10 20,20" fill="#A8893A" stroke="#0F0E0C" stroke-width="0.7"/>
    <polygon points="0,28 6,16 -6,16" fill="#C9A84C" stroke="#0F0E0C" stroke-width="0.7"/>
    <rect x="-1" y="23" width="2" height="4" rx="0.2" fill="#E8D08A" opacity="0.3"/>
    <polygon points="-6,16 -14,10 -20,20" fill="#E0C068" stroke="#0F0E0C" stroke-width="0.7"/>
    <polygon points="-14,10 -20,20 -28,0" fill="#8A6F2E" stroke="#0F0E0C" stroke-width="0.7"/>
    <polygon points="-16,6 -14,10 -28,0" fill="#C9A84C" stroke="#0F0E0C" stroke-width="0.7"/>
    <polygon points="-28,0 -16,-6 -14,-10" fill="#A8893A" stroke="#0F0E0C" stroke-width="0.7"/>
    <polygon points="-16,-6 -14,-10 -20,-20" fill="#E0C068" stroke="#0F0E0C" stroke-width="0.7"/>
    <polygon points="-6,-16 -14,-10 -20,-20" fill="#C9A84C" stroke="#0F0E0C" stroke-width="0.7"/>

    <!-- Outer ring — small diamond tesserae between star points -->
    <polygon points="0,-28 10,-24 14,-10 6,-16" fill="#D4B55A" stroke="#0F0E0C" stroke-width="0.6"/>
    <polygon points="0,-28 -10,-24 -14,-10 -6,-16" fill="#B89840" stroke="#0F0E0C" stroke-width="0.6"/>
    <polygon points="28,0 24,10 14,10 16,6" fill="#D4B55A" stroke="#0F0E0C" stroke-width="0.6"/>
    <polygon points="28,0 24,-10 14,-10 16,-6" fill="#B89840" stroke="#0F0E0C" stroke-width="0.6"/>
    <polygon points="0,28 10,24 14,10 6,16" fill="#B89840" stroke="#0F0E0C" stroke-width="0.6"/>
    <polygon points="0,28 -10,24 -14,10 -6,16" fill="#D4B55A" stroke="#0F0E0C" stroke-width="0.6"/>
    <polygon points="-28,0 -24,10 -14,10 -16,6" fill="#B89840" stroke="#0F0E0C" stroke-width="0.6"/>
    <polygon points="-28,0 -24,-10 -14,-10 -16,-6" fill="#D4B55A" stroke="#0F0E0C" stroke-width="0.6"/>

    <!-- Outermost accent tesserae — tiny scattered pieces -->
    <polygon points="10,-24 20,-20 24,-10" fill="#8A6F2E" stroke="#0F0E0C" stroke-width="0.5"/>
    <polygon points="-10,-24 -20,-20 -24,-10" fill="#8A6F2E" stroke="#0F0E0C" stroke-width="0.5"/>
    <polygon points="24,10 20,20 10,24" fill="#8A6F2E" stroke="#0F0E0C" stroke-width="0.5"/>
    <polygon points="-24,10 -20,20 -10,24" fill="#8A6F2E" stroke="#0F0E0C" stroke-width="0.5"/>

    <!-- Tiny highlight chips on star surface -->
    <circle cx="0" cy="0" r="2" fill="#F5F0E8" opacity="0.15"/>
    <circle cx="0" cy="-20" r="1" fill="#F5F0E8" opacity="0.12"/>
    <circle cx="20" cy="0" r="1" fill="#F5F0E8" opacity="0.12"/>
    <circle cx="0" cy="20" r="1" fill="#F5F0E8" opacity="0.12"/>
    <circle cx="-20" cy="0" r="1" fill="#F5F0E8" opacity="0.12"/>
  </g>

  <!-- ==================== SMALL CORNER MOSAIC MOTIFS ==================== -->
  <!-- Top-left — small 4-tile cluster -->
  <g transform="translate(40, 40)">
    <polygon points="0,-8 6,0 0,8 -6,0" fill="#C9A84C" stroke="#0F0E0C" stroke-width="0.7"/>
    <polygon points="0,-8 3,-4 0,0 -3,-4" fill="#E8D08A" stroke="#0F0E0C" stroke-width="0.5"/>
    <polygon points="0,0 3,4 0,8 -3,4" fill="#A8893A" stroke="#0F0E0C" stroke-width="0.5"/>
    <rect x="-10" y="-3.5" width="3.5" height="3.5" rx="0.3" fill="#E0C068" stroke="#0F0E0C" stroke-width="0.5" transform="rotate(45,-8.25,-1.75)"/>
    <rect x="6.5" y="-3.5" width="3.5" height="3.5" rx="0.3" fill="#8A6F2E" stroke="#0F0E0C" stroke-width="0.5" transform="rotate(45,8.25,-1.75)"/>
  </g>
  <!-- Top-right -->
  <g transform="translate(260, 40)">
    <polygon points="0,-8 6,0 0,8 -6,0" fill="#E0C068" stroke="#0F0E0C" stroke-width="0.7"/>
    <polygon points="0,-8 3,-4 0,0 -3,-4" fill="#E8D08A" stroke="#0F0E0C" stroke-width="0.5"/>
    <polygon points="0,0 3,4 0,8 -3,4" fill="#8A6F2E" stroke="#0F0E0C" stroke-width="0.5"/>
    <rect x="-10" y="-3.5" width="3.5" height="3.5" rx="0.3" fill="#C9A84C" stroke="#0F0E0C" stroke-width="0.5" transform="rotate(45,-8.25,-1.75)"/>
    <rect x="6.5" y="-3.5" width="3.5" height="3.5" rx="0.3" fill="#A8893A" stroke="#0F0E0C" stroke-width="0.5" transform="rotate(45,8.25,-1.75)"/>
  </g>
  <!-- Bottom-left -->
  <g transform="translate(40, 260)">
    <polygon points="0,-6 5,0 0,6 -5,0" fill="#A8893A" stroke="#0F0E0C" stroke-width="0.6"/>
    <rect x="-8" y="-2.5" width="3" height="3" rx="0.3" fill="#C9A84C" stroke="#0F0E0C" stroke-width="0.4" transform="rotate(45,-6.5,-1)"/>
    <rect x="5" y="-2.5" width="3" height="3" rx="0.3" fill="#E0C068" stroke="#0F0E0C" stroke-width="0.4" transform="rotate(45,6.5,-1)"/>
  </g>
  <!-- Bottom-right -->
  <g transform="translate(260, 260)">
    <polygon points="0,-6 5,0 0,6 -5,0" fill="#C9A84C" stroke="#0F0E0C" stroke-width="0.6"/>
    <rect x="-8" y="-2.5" width="3" height="3" rx="0.3" fill="#E0C068" stroke="#0F0E0C" stroke-width="0.4" transform="rotate(45,-6.5,-1)"/>
    <rect x="5" y="-2.5" width="3" height="3" rx="0.3" fill="#8A6F2E" stroke="#0F0E0C" stroke-width="0.4" transform="rotate(45,6.5,-1)"/>
  </g>

  <!-- ==================== MOSAIC DIVIDER — ABOVE TEXT ==================== -->
  <g>
    <rect x="45" y="142" width="5.5" height="4" rx="0.4" fill="#8A6F2E" stroke="#0F0E0C" stroke-width="0.6"/>
    <rect x="52" y="142.2" width="5.3" height="3.8" rx="0.4" fill="#C9A84C" stroke="#0F0E0C" stroke-width="0.6"/>
    <rect x="58.8" y="141.8" width="5.5" height="4.2" rx="0.4" fill="#E0C068" stroke="#0F0E0C" stroke-width="0.6"/>
    <rect x="65.8" y="142.1" width="5.4" height="3.9" rx="0.4" fill="#A8893A" stroke="#0F0E0C" stroke-width="0.6"/>
    <rect x="72.7" y="142" width="5.5" height="4" rx="0.4" fill="#E8D08A" stroke="#0F0E0C" stroke-width="0.6"/>
    <polygon points="84,144 88,141.5 92,144 88,146.5" fill="#C9A84C" stroke="#0F0E0C" stroke-width="0.5"/>
    <line x1="97" y1="144" x2="115" y2="144" stroke="#C9A84C" stroke-width="0.8" stroke-dasharray="3,2"/>
    <polygon points="120,144 124,141.5 128,144 124,146.5" fill="#E0C068" stroke="#0F0E0C" stroke-width="0.5"/>
    <polygon points="133,144 137,141.5 141,144 137,146.5" fill="#8A6F2E" stroke="#0F0E0C" stroke-width="0.5"/>
    <line x1="146" y1="144" x2="155" y2="144" stroke="#A8893A" stroke-width="0.8" stroke-dasharray="3,2"/>
    <polygon points="160,144 164,141.5 168,144 164,146.5" fill="#C9A84C" stroke="#0F0E0C" stroke-width="0.5"/>
    <line x1="173" y1="144" x2="191" y2="144" stroke="#C9A84C" stroke-width="0.8" stroke-dasharray="3,2"/>
    <polygon points="196,144 200,141.5 204,144 200,146.5" fill="#E0C068" stroke="#0F0E0C" stroke-width="0.5"/>
    <polygon points="209,144 213,141.5 217,144 213,146.5" fill="#A8893A" stroke="#0F0E0C" stroke-width="0.5"/>
    <rect x="222" y="142" width="5.5" height="4" rx="0.4" fill="#E8D08A" stroke="#0F0E0C" stroke-width="0.6"/>
    <rect x="229" y="142.2" width="5.3" height="3.8" rx="0.4" fill="#A8893A" stroke="#0F0E0C" stroke-width="0.6"/>
    <rect x="235.8" y="141.8" width="5.5" height="4.2" rx="0.4" fill="#C9A84C" stroke="#0F0E0C" stroke-width="0.6"/>
    <rect x="242.8" y="142.1" width="5.4" height="3.9" rx="0.4" fill="#E0C068" stroke="#0F0E0C" stroke-width="0.6"/>
    <rect x="249.7" y="142" width="5.5" height="4" rx="0.4" fill="#8A6F2E" stroke="#0F0E0C" stroke-width="0.6"/>
  </g>

  <!-- ==================== TEXT ==================== -->
  <text x="150" y="178" text-anchor="middle" font-family="'Tajawal', 'Cairo', 'Arial', sans-serif"
        font-size="36" font-weight="700" fill="#F5F0E8" letter-spacing="1.5" filter="url(#softShadow)">
    رائد الكيال
  </text>

  <text x="150" y="208" text-anchor="middle" font-family="'Tajawal', 'Cairo', 'Arial', sans-serif"
        font-size="17" font-weight="400" fill="url(#goldGrad)" letter-spacing="3">
    للديكور والنجارة
  </text>

  <text x="150" y="230" text-anchor="middle" font-family="'Inter', 'Poppins', 'Arial', sans-serif"
        font-size="8.5" font-weight="400" fill="#A0A0A0" letter-spacing="4.5">
    DECOR &amp; CARPENTRY
  </text>

  <!-- ==================== BOTTOM MOSAIC DIVIDER ==================== -->
  <g>
    <rect x="75" y="238" width="5" height="3.5" rx="0.4" fill="#C9A84C" stroke="#0F0E0C" stroke-width="0.5"/>
    <rect x="81.5" y="238.2" width="4.8" height="3.3" rx="0.4" fill="#E0C068" stroke="#0F0E0C" stroke-width="0.5"/>
    <rect x="87.8" y="237.8" width="5.2" height="3.7" rx="0.4" fill="#A8893A" stroke="#0F0E0C" stroke-width="0.5"/>
    <polygon points="98.5,239.75 102,237.5 105.5,239.75 102,242" fill="#E8D08A" stroke="#0F0E0C" stroke-width="0.5"/>
    <line x1="110" y1="239.75" x2="128" y2="239.75" stroke="#C9A84C" stroke-width="0.7" stroke-dasharray="2.5,1.8"/>
    <polygon points="133,239.75 136.5,237.5 140,239.75 136.5,242" fill="#C9A84C" stroke="#0F0E0C" stroke-width="0.5"/>
    <line x1="145" y1="239.75" x2="155" y2="239.75" stroke="#A8893A" stroke-width="0.7" stroke-dasharray="2.5,1.8"/>
    <polygon points="160,239.75 163.5,237.5 167,239.75 163.5,242" fill="#E0C068" stroke="#0F0E0C" stroke-width="0.5"/>
    <line x1="172" y1="239.75" x2="190" y2="239.75" stroke="#C9A84C" stroke-width="0.7" stroke-dasharray="2.5,1.8"/>
    <polygon points="195,239.75 198.5,237.5 202,239.75 198.5,242" fill="#8A6F2E" stroke="#0F0E0C" stroke-width="0.5"/>
    <rect x="207" y="238" width="5.2" height="3.7" rx="0.4" fill="#A8893A" stroke="#0F0E0C" stroke-width="0.5"/>
    <rect x="213.7" y="238.2" width="4.8" height="3.3" rx="0.4" fill="#C9A84C" stroke="#0F0E0C" stroke-width="0.5"/>
    <rect x="220" y="237.8" width="5" height="3.5" rx="0.4" fill="#E0C068" stroke="#0F0E0C" stroke-width="0.5"/>
  </g>
</svg>